# Blender v2.93.0 OBJ File: ''
# www.blender.org
mtllib Rock6.mtl
o rock.005
v -0.773516 -0.322181 -0.056337
v -0.506894 0.679177 0.070791
v -0.423656 -0.747962 0.170389
v 0.069848 -0.703498 0.587157
v 0.715011 -0.474996 0.150515
v -0.541582 -0.730197 -0.167725
v -0.402177 0.667280 0.569807
v 0.029785 -0.041462 0.780377
v -0.202137 -0.405317 0.759316
v 0.317335 -0.417913 0.421248
v 0.586291 -0.630943 -0.287294
v -0.682490 0.074664 -0.146753
v -0.597728 0.508826 -0.382851
v 0.021747 0.500079 -0.776319
v -0.415874 -0.095217 -0.617139
v 0.356605 0.041212 -0.518053
v 0.656181 0.427997 -0.231303
v 0.309227 0.375574 -0.638905
v 0.778735 -0.228305 -0.235523
v 0.624574 0.559881 0.232309
v 0.003369 0.615469 0.791923
v -0.203136 0.231685 0.676314
v -0.687534 0.065079 0.108306
v -0.720626 0.504049 0.126675
v -0.503288 -0.372224 0.484762
v -0.115525 -0.701472 -0.511026
v -0.215992 -0.967407 -0.096851
v 0.413707 0.822183 0.409660
v 0.051865 0.982040 0.171782
v 0.270536 0.980831 -0.156749
v -0.086555 0.789545 -0.559353
v -0.137771 -0.171010 -0.696755
v 0.470318 -0.011449 0.529416
v 0.201003 -0.472977 -0.657258
v 0.279404 -0.960094 0.245742
v 0.525611 0.842071 -0.117989
vn -0.9585 0.0474 -0.2811
vn -0.5848 -0.1592 -0.7954
vn -0.8105 -0.1326 -0.5706
vn -0.9366 -0.0077 -0.3504
vn -0.5178 0.2421 -0.8206
vn -0.4775 0.2312 -0.8476
vn -0.9270 -0.1919 0.3223
vn -0.9434 0.0325 0.3300
vn -0.4875 0.3995 -0.7764
vn -0.3446 -0.2675 -0.8998
vn -0.5817 -0.4684 -0.6650
vn 0.5906 0.0994 -0.8009
vn 0.6901 0.2106 -0.6923
vn 0.5510 -0.0339 -0.8338
vn -0.1878 -0.3316 -0.9246
vn -0.4593 -0.4140 -0.7859
vn 0.3330 -0.0144 -0.9428
vn 0.3540 -0.1927 -0.9152
vn 0.4753 0.5775 -0.6638
vn 0.5379 0.5249 -0.6597
vn 0.7488 0.6550 0.1012
vn 0.9110 0.2446 0.3321
vn 0.9737 0.2277 0.0016
vn 0.7000 -0.1042 0.7065
vn 0.9223 0.2381 0.3044
vn 0.9555 0.1250 0.2673
vn 0.5653 -0.2025 0.7996
vn 0.5517 -0.3162 0.7718
vn 0.5873 0.1012 0.8030
vn 0.4987 -0.1625 0.8514
vn 0.6776 0.1495 0.7201
vn 0.5734 -0.2399 0.7834
vn -0.5712 0.0027 0.8208
vn -0.7534 -0.2520 0.6074
vn -0.5618 0.1060 0.8205
vn -0.3271 0.0798 0.9416
vn -0.7940 -0.0850 0.6019
vn -0.6621 -0.0936 0.7435
vn -0.9866 0.0160 -0.1627
vn -0.5932 -0.6965 0.4036
vn -0.3981 -0.7643 0.5073
vn 0.2748 -0.8475 -0.4540
vn 0.2344 -0.8379 -0.4929
vn 0.2783 -0.8806 -0.3836
vn 0.2507 -0.8109 -0.5288
vn -0.7342 -0.6414 0.2224
vn -0.4203 -0.8346 0.3561
vn -0.4039 -0.7221 -0.5616
vn 0.6063 -0.4108 0.6809
vn -0.1361 0.9768 0.1654
vn -0.2851 0.9388 -0.1932
vn -0.4365 0.8818 -0.1788
vn -0.0846 0.8607 0.5021
vn -0.3756 0.8758 0.3032
vn 0.3890 0.8567 0.3389
vn 0.3858 0.9091 0.1571
vn -0.5603 0.8277 -0.0312
vn 0.6101 -0.0082 -0.7923
vn 0.4665 0.0450 -0.8834
vn 0.6324 -0.2063 -0.7467
vn 0.9018 -0.4160 -0.1170
vn 0.8244 -0.5645 -0.0413
vn 0.8313 -0.5539 -0.0471
vn -0.4672 -0.0149 0.8840
vn 0.3078 -0.2494 0.9182
vn -0.6349 0.7725 -0.0073
vn -0.5596 0.8065 -0.1908
vn -0.5038 -0.7280 0.4649
vn 0.3903 -0.8149 -0.4286
vn 0.7457 -0.6661 0.0180
vn -0.2985 -0.8419 0.4496
vn 0.4156 0.6344 -0.6519
vn 0.4309 0.6050 -0.6696
usemtl None
s 1
f 12//1 15//2 1//3
f 13//4 15//2 12//1
f 13//5 14//6 15//2
f 12//1 1//7 23//8
f 31//9 14//6 13//5
f 15//2 32//10 6//11
f 18//12 17//13 16//14
f 32//10 34//15 26//16
f 18//12 16//14 32//17
f 14//18 18//12 32//17
f 14//19 36//20 18//12
f 36//21 20//22 17//23
f 33//24 5//25 19//26
f 33//24 10//27 5//28
f 21//29 8//30 33//24
f 28//31 21//29 33//24
f 8//30 4//32 10//27
f 33//24 8//30 10//27
f 22//33 25//34 9//35
f 22//33 23//8 25//34
f 22//33 9//35 8//36
f 24//37 23//8 7//38
f 24//39 12//1 23//8
f 25//34 1//7 3//40
f 25//34 3//40 4//41
f 27//42 11//43 35//44
f 34//45 11//43 27//42
f 6//46 27//47 3//40
f 6//11 26//16 27//48
f 35//49 5//28 4//32
f 4//32 5//28 10//27
f 27//47 4//41 3//40
f 29//50 30//51 31//52
f 21//53 29//50 7//54
f 21//53 28//55 29//50
f 36//21 30//56 28//55
f 29//50 2//57 7//54
f 1//3 15//2 6//11
f 15//2 14//6 32//10
f 6//11 32//10 26//16
f 16//14 19//58 34//59
f 16//14 17//13 19//58
f 18//12 36//20 17//13
f 17//23 20//22 19//26
f 34//59 19//58 11//60
f 32//17 16//14 34//59
f 20//22 33//24 19//26
f 19//61 5//62 11//63
f 20//22 28//31 33//24
f 21//64 7//38 22//33
f 21//64 22//33 8//36
f 22//33 7//38 23//8
f 8//30 9//65 4//32
f 7//54 2//57 24//66
f 24//39 13//4 12//1
f 2//57 13//67 24//66
f 25//34 23//8 1//7
f 9//68 25//34 4//41
f 26//69 34//45 27//42
f 1//7 6//46 3//40
f 35//70 11//63 5//62
f 27//47 35//71 4//41
f 28//55 30//56 29//50
f 29//50 31//52 2//57
f 20//22 36//21 28//55
f 31//72 36//20 14//19
f 30//73 36//20 31//72
f 2//57 31//52 13//67
