# Blender v2.93.0 OBJ File: ''
# www.blender.org
mtllib Rock5.mtl
o rock.004
v -0.004874 -0.007458 0.115670
v 0.417668 0.483762 -0.545185
v 0.112062 0.428111 -1.002966
v -0.195632 -0.771388 -0.686570
v -0.817139 0.018681 -0.676370
v 0.200555 0.541204 0.836641
v 0.697087 -0.118960 0.694947
v 1.043332 -0.136975 -0.129141
v -0.200913 -0.156486 -0.224915
v -0.005086 -0.441760 -0.363267
v -0.479420 -0.352838 -0.852874
v 0.457233 -0.570765 -0.679304
v 0.931915 -0.222638 -0.499422
v -0.196554 0.123738 -0.155407
v -0.637461 0.273152 -0.226701
v -0.171095 0.242140 0.548778
v 0.354676 0.878059 0.676883
v 0.872038 0.656711 0.307856
v 0.503271 -0.564956 0.201478
v 0.096848 -0.347302 -1.113384
v -0.791963 0.598704 -0.234187
v -0.458063 0.994438 0.339635
v -0.507475 0.710691 0.506350
v 0.266161 0.026789 0.413514
v 0.886607 0.332553 0.688787
v 1.016860 -0.291868 0.144110
v 0.659329 -0.715551 -0.528657
v 0.698272 0.182875 -0.508319
v 0.479914 -0.070697 -0.931821
v -0.632465 0.103027 -1.009637
v -0.624324 0.469910 -0.569816
v 0.250214 1.035198 -0.117088
v -0.148269 0.843321 0.532483
v -0.031075 0.897482 -0.564351
v 0.262215 0.935083 0.363243
v 0.886498 0.685290 -0.148821
v 0.685890 -0.608480 -0.053806
v 0.222884 -0.502376 0.062262
v 0.350040 -0.712751 -0.466908
v -0.547894 -0.143463 -0.391295
v 0.825435 -0.447311 0.544967
v 0.558918 0.370077 0.759218
v -0.630676 0.878732 0.085458
v -0.522303 0.856031 -0.444008
vn 0.4569 -0.7632 0.4569
vn -0.5187 -0.7103 0.4758
vn -0.5923 -0.3980 0.7006
vn -0.7255 -0.3306 0.6036
vn -0.6507 -0.7183 0.2463
vn -0.2146 -0.9430 0.2542
vn 0.4549 -0.8818 -0.1247
vn -0.3078 -0.5807 0.7537
vn -0.2934 -0.5775 0.7618
vn -0.2404 -0.6053 0.7588
vn -0.7801 -0.3862 0.4923
vn -0.1259 -0.7942 -0.5945
vn 0.1232 -0.8526 -0.5078
vn 0.1214 -0.8216 -0.5570
vn 0.2511 -0.7973 -0.5489
vn 0.2421 -0.7661 -0.5954
vn -0.7710 -0.5459 0.3280
vn -0.7342 -0.5696 0.3695
vn -0.7908 -0.5930 0.1517
vn -0.3471 -0.4440 0.8261
vn -0.4038 -0.4279 0.8086
vn -0.3518 -0.3154 0.8813
vn -0.8370 -0.1194 0.5340
vn -0.2778 -0.4040 0.8715
vn -0.8292 0.4367 -0.3489
vn -0.9202 0.3537 0.1676
vn -0.2960 -0.8107 0.5051
vn -0.4594 -0.8731 0.1634
vn -0.5619 -0.7915 0.2405
vn -0.3406 -0.9251 0.1679
vn -0.8367 0.3784 0.3960
vn -0.9101 0.2169 0.3530
vn -0.8805 0.2914 0.3740
vn -0.9299 0.1545 0.3339
vn -0.7755 0.5160 -0.3638
vn -0.7743 0.5321 -0.3425
vn -0.7489 0.6375 -0.1806
vn -0.4580 -0.2516 0.8526
vn -0.2614 0.5148 0.8165
vn -0.2558 0.5232 0.8129
vn -0.2610 0.5086 0.8205
vn 0.2611 0.0046 0.9653
vn 0.2957 0.2675 0.9171
vn 0.2450 0.1616 0.9559
vn 0.3279 0.2782 0.9028
vn -0.2522 0.5225 0.8145
vn -0.2613 0.5515 0.7922
vn -0.5693 -0.4882 0.6615
vn -0.5914 -0.4246 0.6856
vn -0.5886 -0.2666 0.7632
vn -0.1993 -0.7622 0.6159
vn -0.1422 -0.6396 0.7555
vn -0.1133 -0.6397 0.7602
vn 0.7718 -0.6124 -0.1711
vn 0.7452 -0.6085 -0.2727
vn 0.8255 -0.5602 -0.0692
vn 0.8720 -0.4858 0.0608
vn 0.8267 -0.5618 -0.0300
vn 0.7026 0.3655 -0.6106
vn 0.8183 0.3062 -0.4864
vn 0.7780 0.4384 -0.4500
vn 0.1021 0.1383 -0.9851
vn 0.1400 0.1369 -0.9806
vn -0.0531 0.1418 -0.9885
vn 0.6886 0.4082 -0.5994
vn 0.6461 0.5500 -0.5292
vn 0.5490 -0.3275 -0.7689
vn 0.5862 -0.3862 -0.7122
vn 0.5377 -0.3330 -0.7746
vn 0.5899 0.6157 -0.5224
vn 0.4564 0.6280 -0.6303
vn 0.5580 0.5654 -0.6074
vn 0.0212 0.9552 0.2952
vn 0.0454 0.9496 0.3100
vn -0.1305 0.9692 0.2090
vn 0.4463 0.8847 0.1349
vn 0.4211 0.8997 0.1148
vn 0.4515 0.8873 0.0938
vn -0.3290 0.5899 -0.7374
vn -0.2506 0.3591 -0.8990
vn -0.3549 0.5025 -0.7883
vn 0.4180 0.9075 0.0418
vn 0.4834 0.8726 0.0699
vn -0.1161 -0.9684 0.2208
vn -0.2215 -0.9751 0.0078
vn -0.5199 -0.4651 0.7165
vn 0.0347 -0.9753 0.2180
vn -0.4488 -0.4661 -0.7625
vn -0.3562 -0.4857 -0.7983
vn -0.3428 -0.5383 -0.7698
vn -0.7712 -0.3704 0.5177
vn -0.8427 -0.5262 0.1137
vn -0.7408 -0.4270 -0.5186
vn -0.6130 -0.4330 -0.6608
vn -0.7812 -0.4778 0.4018
vn -0.7931 -0.4266 0.4346
vn -0.8026 -0.3701 0.4679
vn -0.7691 -0.5183 0.3739
vn -0.7648 0.3732 -0.5252
vn -0.8667 -0.4176 -0.2727
vn -0.1283 0.9684 0.2139
vn 0.4923 -0.1951 0.8483
vn 0.4297 -0.1683 0.8871
vn 0.5370 0.4330 -0.7240
vn 0.9859 0.1523 0.0694
vn 0.9884 0.1412 0.0564
vn 0.9721 0.0411 0.2309
vn 0.9616 0.1882 0.1998
vn 0.6159 0.6114 0.4968
vn 0.9845 0.0625 0.1638
vn 0.9135 -0.1420 0.3812
vn 0.4800 -0.2150 -0.8505
vn 0.3496 0.1254 -0.9285
vn -0.3644 0.6354 -0.6808
vn -0.3141 0.7319 -0.6047
vn 0.6058 -0.3803 -0.6988
vn -0.1758 0.9753 -0.1340
vn -0.1940 0.9614 -0.1950
vn -0.2139 0.9582 -0.1900
vn -0.0992 0.9931 -0.0629
vn -0.2283 0.9352 -0.2707
vn 0.1980 0.9004 0.3874
usemtl None
s 1
f 19//1 37//1 26//1
f 38//2 24//3 1//4
f 10//5 39//6 38//2
f 19//7 26//7 41//7
f 10//8 4//9 39//10
f 10//5 38//2 9//11
f 27//12 39//13 12//14
f 12//14 39//13 4//15
f 12//14 4//15 20//16
f 40//17 5//18 11//19
f 40//20 9//21 14//22
f 14//23 9//11 1//4
f 15//24 40//20 14//22
f 9//21 40//20 10//8
f 30//25 5//25 31//25
f 31//26 5//26 15//26
f 16//27 14//28 1//29
f 16//27 15//30 14//28
f 22//31 43//32 23//33
f 43//32 21//34 23//33
f 44//35 21//36 43//37
f 16//38 6//38 23//38
f 17//39 23//40 6//41
f 25//42 17//43 42//44
f 17//43 6//45 42//44
f 22//46 23//40 33//47
f 41//48 7//49 24//3
f 24//3 7//49 42//50
f 24//51 42//52 6//53
f 8//54 26//55 37//56
f 37//56 27//57 13//58
f 28//59 8//60 13//61
f 3//62 20//63 30//64
f 28//59 29//65 3//66
f 12//67 29//68 13//69
f 13//61 29//65 28//59
f 34//70 32//71 2//72
f 32//73 33//74 35//75
f 32//76 35//77 18//78
f 31//79 44//80 34//81
f 18//78 35//77 17//82
f 36//83 32//76 18//78
f 38//2 37//84 19//85
f 9//11 38//2 1//4
f 39//6 37//84 38//2
f 24//3 38//2 19//86
f 27//87 37//84 39//6
f 10//8 40//20 4//9
f 11//88 20//89 4//90
f 40//17 15//91 5//18
f 11//19 4//92 40//17
f 11//88 5//93 30//94
f 16//95 21//96 15//97
f 16//95 23//98 21//96
f 31//99 21//36 44//35
f 15//100 21//100 31//100
f 24//51 16//27 1//29
f 16//27 24//51 6//53
f 35//75 33//74 17//101
f 23//40 17//39 33//47
f 41//102 25//42 7//103
f 19//86 41//48 24//3
f 25//42 42//44 7//103
f 36//104 8//60 28//59
f 2//72 36//104 28//59
f 36//105 18//106 26//107
f 36//105 26//107 8//108
f 18//109 17//109 25//109
f 18//106 25//110 26//107
f 26//107 25//110 41//111
f 8//54 37//56 13//58
f 12//67 13//69 27//112
f 3//62 29//113 20//63
f 31//79 3//114 30//115
f 2//72 28//59 3//66
f 29//68 12//67 20//116
f 30//94 20//89 11//88
f 34//117 43//118 32//119
f 34//117 44//120 43//118
f 32//119 43//118 22//121
f 3//66 34//70 2//72
f 3//114 31//79 34//81
f 32//73 22//122 33//74
f 36//104 2//72 32//71
