# Blender v2.93.0 OBJ File: ''
# www.blender.org
mtllib Rock1.mtl
o rock
v -0.016964 0.260487 0.075615
v 0.224305 -0.391453 0.385107
v -0.346266 -0.435601 -0.214114
v 0.273345 -0.097478 0.357784
v -0.275913 0.052895 0.138719
v 0.009003 -0.034464 0.476600
v 0.295815 0.004029 -0.052835
v 0.058270 0.228778 -0.161644
v 0.031283 0.057806 -0.273083
v -0.394880 -0.088430 0.171208
v 0.344685 -0.518706 0.200169
v 0.145804 -0.550472 -0.119033
v 0.197687 -0.022641 -0.277107
v -0.091615 0.010938 -0.303556
v 0.033816 -0.511727 -0.330361
v 0.588988 -0.337492 -0.083256
v -0.010117 0.193173 0.240235
v 0.243869 0.066128 -0.148429
v 0.403921 -0.319456 -0.304868
v -0.202002 0.022199 -0.230907
v -0.181737 0.161757 0.202582
v 0.192772 0.145747 0.010777
v -0.137456 0.175867 -0.064228
v -0.339517 -0.075944 -0.043238
v -0.023158 -0.629209 0.048719
v 0.531383 -0.422041 -0.177302
v -0.225612 -0.444411 -0.322187
v 0.082056 -0.373157 0.482952
v -0.284687 -0.455533 0.397983
v -0.435974 -0.317815 -0.158987
v -0.222730 -0.357933 -0.394475
v 0.330358 -0.121665 -0.229477
v 0.386653 -0.102418 -0.135455
v 0.397113 -0.127339 0.021122
v 0.142628 -0.123893 -0.357619
v 0.236029 -0.457231 -0.399844
v 0.267376 0.008964 0.148988
v 0.388673 -0.160167 0.252842
v -0.174500 -0.093153 -0.358959
v -0.269861 0.029645 -0.122799
v -0.074924 0.134892 0.319497
v 0.172110 0.020248 0.283544
v 0.363049 -0.526903 -0.193632
v 0.380418 -0.617725 0.038759
v 0.116567 -0.648974 0.111668
v -0.022750 -0.568556 -0.082813
v -0.304491 -0.597091 0.031706
v -0.282412 -0.534710 0.251989
v -0.019966 -0.553178 0.405016
v 0.167986 -0.467636 0.376381
v 0.078564 -0.598299 0.247781
v 0.541920 -0.301228 0.066034
v 0.464341 -0.395872 0.159383
v 0.528180 -0.538310 -0.014091
v -0.068954 -0.190151 -0.416481
v 0.032980 -0.306691 -0.466669
v -0.482439 -0.480997 -0.033464
v -0.435793 -0.258223 0.286586
v -0.519190 -0.229368 0.048934
v -0.372157 -0.168225 -0.233758
v -0.071710 -0.162721 0.525300
v 0.119728 -0.225418 0.449708
v 0.011230 -0.149766 -0.385388
v -0.214347 -0.028784 0.325236
v -0.189577 -0.310445 0.548091
v 0.126959 -0.419758 -0.473303
v -0.061102 -0.473293 -0.362887
v -0.189761 -0.510921 -0.152141
v -0.062784 -0.463482 0.521489
v -0.523633 -0.354339 -0.005339
vn 0.6993 0.6713 0.2459
vn 0.5657 0.7105 0.4185
vn 0.7273 0.6568 0.1992
vn 0.4967 0.6946 0.5204
vn 0.6673 0.7367 0.1094
vn 0.5177 0.8307 0.2046
vn 0.7414 -0.2265 0.6316
vn 0.6919 -0.0453 0.7206
vn 0.5835 -0.2429 0.7749
vn 0.7607 0.6434 0.0857
vn 0.7851 0.6183 0.0371
vn 0.5066 0.5682 -0.6484
vn 0.6918 0.4963 -0.5244
vn 0.6225 0.4791 -0.6188
vn 0.7440 0.6643 -0.0717
vn 0.5661 0.8231 -0.0452
vn -0.4287 0.7948 -0.4295
vn -0.5473 0.7893 -0.2784
vn -0.4193 0.9078 0.0088
vn 0.4350 0.5394 -0.7210
vn 0.1609 0.5358 -0.8289
vn 0.2903 0.4152 -0.8622
vn 0.6287 0.1845 -0.7555
vn -0.1768 0.6053 -0.7761
vn -0.5005 0.6878 -0.5257
vn -0.3546 0.4389 -0.8256
vn -0.1198 0.3570 -0.9264
vn -0.4784 -0.2119 -0.8522
vn -0.7604 0.3699 -0.5338
vn -0.8330 0.1479 -0.5331
vn -0.7227 0.6575 -0.2130
vn -0.8181 -0.0593 -0.5720
vn -0.7204 -0.3022 -0.6243
vn -0.7553 0.6371 -0.1540
vn -0.7087 0.5298 0.4659
vn -0.7062 0.5301 0.4694
vn -0.5928 0.5092 0.6239
vn -0.7000 0.4810 0.5279
vn -0.8320 0.4347 0.3447
vn -0.5109 0.8485 0.1378
vn -0.2491 0.8822 0.3995
vn -0.5514 0.4873 0.6772
vn 0.4622 0.0714 0.8839
vn 0.5644 0.0149 0.8254
vn 0.4094 0.1098 0.9057
vn 0.5158 0.7186 0.4664
vn 0.3002 -0.8368 0.4580
vn 0.4250 -0.7266 0.5398
vn 0.4988 -0.6192 0.6065
vn 0.1284 -0.9167 -0.3783
vn 0.0341 -0.9449 -0.3257
vn 0.2648 -0.8568 -0.4425
vn 0.3597 -0.8008 0.4788
vn 0.4521 -0.5975 0.6623
vn 0.7679 -0.3921 0.5065
vn 0.0727 -0.9227 -0.3785
vn 0.4898 -0.7068 -0.5103
vn 0.4058 -0.8093 -0.4246
vn 0.5523 -0.1028 -0.8273
vn 0.4132 0.2574 -0.8735
vn -0.0625 -0.9309 -0.3600
vn -0.0490 -0.9198 -0.3893
vn -0.0153 -0.9130 -0.4076
vn -0.2554 -0.4567 -0.8522
vn -0.4704 -0.5567 -0.6847
vn -0.2164 -0.8902 -0.4009
vn -0.2051 -0.8953 -0.3954
vn -0.2733 -0.9140 -0.2999
vn -0.2947 -0.8608 -0.4150
vn -0.1770 -0.9534 0.2445
vn -0.2586 -0.8972 0.3580
vn -0.4345 -0.8351 0.3374
vn 0.4078 -0.6994 0.5870
vn -0.7687 -0.5301 0.3579
vn -0.5924 -0.5706 0.5688
vn -0.8356 -0.3137 0.4509
vn -0.3800 -0.6978 0.6072
vn -0.2547 -0.9273 0.2741
vn -0.1499 -0.9625 0.2261
vn 0.4427 -0.1504 0.8840
vn 0.4321 -0.5646 0.7033
vn 0.8575 -0.1272 0.4985
vn 0.7529 0.6513 0.0941
vn 0.7330 0.3491 -0.5838
vn 0.2608 0.4085 -0.8747
vn 0.1022 0.4558 -0.8842
vn -0.8787 0.0342 -0.4762
vn -0.8002 -0.2056 -0.5634
vn -0.9423 -0.1046 0.3180
vn -0.8879 -0.2850 0.3610
vn 0.2396 0.0298 0.9704
vn 0.2314 -0.0082 0.9728
vn -0.5690 -0.3810 0.7288
vn 0.7641 0.6437 0.0424
vn 0.3350 0.4768 -0.8127
vn -0.7636 0.6373 -0.1038
vn -0.7292 0.6678 -0.1494
vn -0.6890 0.4720 0.5500
vn -0.5356 0.4806 0.6944
vn -0.2530 0.8665 0.4303
vn 0.4174 0.7186 0.5563
vn 0.3953 0.6474 0.6517
vn -0.4728 0.5123 0.7169
vn -0.4842 0.5273 0.6982
vn 0.0232 -0.9205 -0.3901
vn 0.4841 -0.6942 -0.5327
vn 0.0084 -0.8434 -0.5372
vn -0.2054 -0.8549 -0.4764
vn -0.3548 -0.8079 -0.4705
vn -0.3972 -0.8718 0.2867
vn 0.7539 0.6532 0.0706
vn 0.9281 -0.1663 0.3330
vn 0.7373 0.0824 -0.6705
vn 0.9048 -0.3550 -0.2351
vn -0.3193 -0.3646 -0.8747
vn -0.4189 -0.2978 -0.8578
vn -0.8851 0.2115 -0.4146
vn -0.6886 0.7053 -0.1684
vn 0.3263 0.0468 0.9441
usemtl None
s 1
f 37//1 4//2 38//3
f 17//4 22//5 1//6
f 37//1 22//5 17//4
f 53//7 38//8 2//9
f 34//10 37//1 38//3
f 7//11 37//1 34//10
f 7//11 22//5 37//1
f 18//12 33//13 32//14
f 22//5 18//15 8//16
f 22//5 8//16 1//6
f 8//17 23//18 1//19
f 13//20 9//21 18//12
f 35//22 32//14 19//23
f 8//17 14//24 23//18
f 14//24 20//25 23//18
f 39//26 55//27 31//28
f 20//25 39//26 60//29
f 20//25 14//24 39//26
f 24//30 40//30 20//30
f 20//25 40//31 23//18
f 30//32 31//28 3//33
f 24//34 20//25 60//29
f 5//35 10//36 64//37
f 64//37 10//36 58//38
f 10//36 59//39 58//38
f 21//40 17//41 1//19
f 65//42 64//37 58//38
f 62//43 4//44 6//45
f 4//44 62//43 2//9
f 4//2 37//1 42//46
f 45//47 44//48 11//49
f 44//50 12//51 43//52
f 51//53 11//49 50//54
f 45//47 11//49 51//53
f 44//48 54//55 11//49
f 36//56 43//52 12//51
f 26//57 54//58 43//52
f 36//59 66//60 19//23
f 46//61 15//62 12//51
f 46//61 12//51 25//63
f 31//28 67//64 27//65
f 67//66 68//67 27//68
f 68//67 3//69 27//68
f 25//70 49//71 48//72
f 49//73 51//53 50//54
f 57//74 29//75 58//76
f 48//72 69//77 29//75
f 48//72 49//71 69//77
f 45//78 51//79 25//70
f 50//54 2//9 28//80
f 69//81 50//54 28//80
f 54//55 52//82 53//7
f 38//3 52//83 34//10
f 32//14 33//13 19//23
f 33//13 16//84 19//23
f 66//60 56//85 63//86
f 19//23 66//60 35//22
f 55//27 56//85 31//28
f 70//87 60//29 30//32
f 70//87 30//32 57//88
f 58//76 59//89 70//90
f 69//91 28//80 65//92
f 29//75 65//93 58//76
f 62//43 28//80 2//9
f 7//11 33//94 18//15
f 22//5 7//11 18//15
f 34//10 33//94 7//11
f 13//20 18//12 32//14
f 35//22 9//21 13//20
f 18//12 9//21 8//95
f 35//22 13//20 32//14
f 63//86 9//21 35//22
f 8//95 9//21 14//24
f 63//86 55//27 39//26
f 63//86 39//26 14//24
f 9//21 63//86 14//24
f 23//18 40//31 5//96
f 30//32 60//29 31//28
f 31//28 60//29 39//26
f 24//34 5//96 40//31
f 23//18 21//40 1//19
f 23//18 5//96 21//40
f 24//34 10//97 5//96
f 21//98 64//37 41//99
f 21//40 41//100 17//41
f 64//37 21//98 5//35
f 6//101 42//46 41//102
f 42//46 17//4 41//102
f 6//103 41//99 64//37
f 61//104 64//37 65//42
f 6//101 4//2 42//46
f 17//4 42//46 37//1
f 38//8 4//44 2//9
f 45//105 12//51 44//50
f 43//52 54//58 44//50
f 50//54 11//49 2//9
f 2//9 11//49 53//7
f 11//49 54//55 53//7
f 25//63 12//51 45//105
f 26//57 43//52 36//106
f 36//56 15//62 66//107
f 12//51 15//62 36//56
f 15//62 68//67 67//66
f 46//61 68//67 15//62
f 31//28 27//65 3//33
f 67//66 66//107 15//62
f 3//69 47//108 57//109
f 68//67 47//108 3//69
f 46//61 25//63 47//108
f 25//70 48//72 47//110
f 68//67 46//61 47//108
f 29//75 57//74 48//72
f 57//74 47//110 48//72
f 25//70 51//79 49//71
f 69//81 49//73 50//54
f 34//10 52//83 16//111
f 53//7 52//82 38//8
f 54//55 16//112 52//82
f 36//59 19//23 26//113
f 33//94 34//10 16//111
f 26//114 16//114 54//114
f 26//113 19//23 16//84
f 55//27 63//86 56//85
f 67//64 56//115 66//116
f 35//22 66//60 63//86
f 31//28 56//115 67//64
f 70//87 59//117 60//29
f 3//33 57//88 30//32
f 58//76 70//90 57//74
f 24//34 59//118 10//97
f 60//29 59//118 24//34
f 65//92 28//80 61//119
f 62//43 61//119 28//80
f 65//93 29//75 69//77
f 6//103 64//37 61//104
f 6//45 61//119 62//43
