# Blender v2.93.0 OBJ File: 'untitled.blend'
# www.blender.org
mtllib Terrane01.mtl
o Terrain01_Cube
v -88.655823 -0.807544 6.501694
v -87.899384 -0.003212 3.448776
v -84.561882 -0.807544 -10.021133
v -85.392014 -0.003212 -6.670776
v 5.579842 -0.807544 10.012009
v 5.579844 -0.003212 7.055229
v 5.579842 -0.807544 -8.588104
v 5.579844 -0.003212 -4.767124
v -122.742546 -0.807544 -26.311859
v -133.783722 -0.807544 -14.238846
v -130.602524 0.396895 -18.052383
v -124.947876 0.549783 -24.244030
v -142.735779 -0.807544 -66.768303
v -159.025879 -0.807544 -60.928833
v -155.102661 2.042849 -62.500992
v -147.474487 2.484791 -65.132484
v -149.763153 -0.807544 -223.306549
v -167.861481 -0.807544 -227.972107
v -163.415741 5.353631 -226.929077
v -154.203094 5.416339 -224.864792
v -117.849770 -0.807544 -270.760101
v -135.489624 -0.807544 -286.300995
v -130.227478 8.564615 -282.929932
v -122.218056 8.564615 -276.707764
v -60.139755 -0.807544 -292.806824
v -64.510574 -0.807544 -323.140015
v -62.664818 11.419003 -309.877991
v -61.535664 11.419003 -300.002411
v -31.290230 -0.807544 -293.468872
v -31.290230 -0.807544 -322.412659
v -31.290230 11.419003 -311.694031
v -31.290230 11.419003 -301.227905
v 28.130878 -0.003212 -4.560558
v 28.130882 -0.807544 -9.310974
v 28.130875 -0.807544 10.511383
v 28.130878 -0.003212 7.509682
v -155.884338 -0.807544 -137.422012
v -160.942535 3.685166 -137.572998
v -168.624451 3.437614 -137.758606
v -172.480621 -0.807544 -137.680939
vt 0.625000 0.250000
vt 0.530528 0.249973
vt 0.532166 0.250000
vt 0.625000 0.250000
vt 0.625000 0.500000
vt 0.507911 0.500000
vt 0.625000 0.750000
vt 0.625000 0.750000
vt 0.625000 0.500000
vt 0.421369 0.720990
vt 1.015071 1.000021
vt 0.796693 0.999914
vt 0.125000 0.549617
vt 0.125000 0.695920
vt 0.875000 0.500000
vt 0.875000 0.644583
vt 0.875000 0.834852
vt 0.875000 0.500000
vt 0.875000 0.500000
vt 0.875000 0.750000
vt 0.610403 1.000000
vt 0.465247 1.000000
vt 0.125000 0.717509
vt 0.125000 0.551471
vt 0.625000 0.250000
vt 0.445610 0.250000
vt 0.375000 0.250000
vt 0.625000 0.250000
vt 0.125000 0.720636
vt 0.125000 0.544792
vt 0.491913 0.250000
vt 0.625000 0.250000
vt 0.625000 1.000000
vt 0.461284 1.000000
vt 0.875000 0.750000
vt 0.875000 0.500000
vt 0.875000 0.038927
vt 0.875000 0.863363
vt 0.439350 1.000000
vt 0.625000 1.000000
vt 0.625000 1.000000
vt 0.425058 1.000000
vt 0.875000 0.750000
vt 0.875000 0.500000
vt 0.125000 0.536056
vt 0.125000 0.722530
vt 0.125000 0.718300
vt 0.125000 0.500000
vt 0.875000 0.111899
vt 0.875000 1.236981
vt 0.125000 0.700078
vt 0.125000 0.533512
vt 0.417783 0.250000
vt 0.576823 0.250000
vt 0.607123 1.000000
vt 0.451806 1.000000
vt 0.600402 0.250000
vt 0.416221 0.250000
vt 0.375000 0.224697
vt 0.625000 0.250000
vt 0.125000 0.700713
vt 0.125000 0.526823
vt 0.588971 1.000000
vt 0.436630 1.000000
vt 0.375000 0.078559
vt 0.625000 0.000000
vt 0.625000 1.000000
vt 0.484396 1.000000
vt 0.875000 0.500000
vt 0.875000 0.750000
vt 0.125000 0.671441
vt 0.125000 0.525303
vt 0.483025 0.500000
vt 0.395511 0.702532
vn 0.1373 0.9441 -0.2997
vn 0.0040 0.9758 -0.2184
vn 0.0000 1.0000 0.0000
vn -0.0098 0.9663 0.2574
vn 0.0000 -1.0000 -0.0000
vn -0.0124 0.9987 0.0487
vn -0.1034 0.9690 0.2242
vn 0.0058 0.9999 0.0123
vn 0.7420 0.6675 0.0618
vn 0.4592 0.8607 -0.2196
vn -0.3583 0.9092 0.2120
vn -0.0248 0.9987 0.0439
vn -0.7796 0.6253 -0.0360
vn -0.0209 0.9996 0.0192
vn -0.0364 0.9991 0.0207
vn 0.6682 0.5934 0.4488
vn -0.7226 0.5648 -0.3985
vn 0.0272 0.5227 0.8521
vn 0.2864 0.5527 0.7826
vn -0.3316 0.6417 -0.6916
vn 1.0000 -0.0000 0.0000
vn -0.0120 0.7006 -0.7135
vn -0.0021 0.9828 -0.1845
vn -0.0055 0.9654 0.2606
vn -0.0410 0.9988 0.0250
vn -0.6544 0.7461 0.1230
vn 0.6086 0.7863 -0.1066
usemtl None
s off
f 4/1/1 3/2/1 9/3/1 12/4/1
f 3/2/2 4/1/2 8/5/2 7/6/2
f 8/5/3 6/7/3 36/8/3 33/9/3
f 5/10/4 6/7/4 2/11/4 1/12/4
f 3/13/5 7/6/5 5/10/5 1/14/5
f 8/5/3 4/15/3 2/16/3 6/7/3
f 11/17/6 12/18/6 16/19/6 15/20/6
f 1/12/7 2/11/7 11/21/7 10/22/7
f 2/16/8 4/15/8 12/18/8 11/17/8
f 3/13/5 1/14/5 10/23/5 9/24/5
f 38/25/9 37/26/9 17/27/9 20/28/9
f 9/24/5 10/23/5 14/29/5 13/30/5
f 12/4/10 9/3/10 13/31/10 16/32/10
f 10/22/11 11/21/11 15/33/11 14/34/11
f 19/35/12 20/36/12 24/37/12 23/38/12
f 40/39/13 39/40/13 19/41/13 18/42/13
f 39/43/14 38/44/14 20/36/14 19/35/14
f 37/45/5 40/46/5 18/47/5 17/48/5
f 23/38/15 24/37/15 28/49/15 27/50/15
f 17/48/5 18/47/5 22/51/5 21/52/5
f 20/28/16 17/27/16 21/53/16 24/54/16
f 18/42/17 19/41/17 23/55/17 22/56/17
f 28/57/18 25/58/18 29/59/18 32/60/18
f 21/52/5 22/51/5 26/61/5 25/62/5
f 24/54/19 21/53/19 25/58/19 28/57/19
f 22/56/20 23/55/20 27/63/20 26/64/20
f 30/65/21 31/66/21 32/60/21 29/59/21
f 26/64/22 27/63/22 31/67/22 30/68/22
f 27/50/3 28/49/3 32/69/3 31/70/3
f 25/62/5 26/61/5 30/71/5 29/72/5
f 34/73/21 33/9/21 36/8/21 35/74/21
f 7/6/23 8/5/23 33/9/23 34/73/23
f 6/7/24 5/10/24 35/74/24 36/8/24
f 5/10/5 7/6/5 34/73/5 35/74/5
f 13/30/5 14/29/5 40/46/5 37/45/5
f 15/20/25 16/19/25 38/44/25 39/43/25
f 14/34/26 15/33/26 39/40/26 40/39/26
f 16/32/27 13/31/27 37/26/27 38/25/27
